<svg xmlns="http://www.w3.org/2000/svg" xmlns:xlink="http://www.w3.org/1999/xlink" width="1200" height="1200" viewBox="0 0 1200 1200"><g><g transform="translate(600 600) scale(0.69 0.69) rotate(0) translate(-600 -600)" style="fill:#1A1A1A"><svg fill="#1A1A1A" xmlns:x="http://ns.adobe.com/Extensibility/1.0/" xmlns:i="http://ns.adobe.com/AdobeIllustrator/10.0/" xmlns:graph="http://ns.adobe.com/Graphs/1.0/" xmlns="http://www.w3.org/2000/svg" xmlns:xlink="http://www.w3.org/1999/xlink" version="1.1" x="0px" y="0px" viewBox="0 0 64 64" enable-background="new 0 0 64 64" xml:space="preserve"><metadata><sfw xmlns="http://ns.adobe.com/SaveForWeb/1.0/"><slices></slices><sliceSourceBounds y="-8160" x="-8165" width="16389" height="16384" bottomLeftOrigin="true"></sliceSourceBounds><optimizationSettings><targetSettings targetSettingsID="0" fileFormat="PNG24Format"><PNG24Format transparency="true" filtered="false" interlaced="false" noMatteColor="false" matteColor="#FFFFFF"></PNG24Format></targetSettings></optimizationSettings></sfw></metadata><g><path d="M56,11H8c-0.552,0-1,0.448-1,1v40c0,0.553,0.448,1,1,1h48c0.553,0,1-0.447,1-1V12C57,11.448,56.553,11,56,11z    M22.832,37.445c0.306,0.46,0.182,1.08-0.277,1.387C22.384,38.945,22.191,39,22.001,39c-0.323,0-0.64-0.156-0.833-0.445l-4-6   c-0.224-0.336-0.224-0.773,0-1.109l4-6c0.306-0.459,0.927-0.584,1.387-0.277c0.459,0.306,0.583,0.927,0.277,1.387L19.202,32   L22.832,37.445z M30.98,42.196C30.886,42.672,30.468,43,30.001,43c-0.065,0-0.131-0.006-0.197-0.02   c-0.542-0.108-0.893-0.635-0.784-1.177l4-20c0.108-0.542,0.635-0.891,1.177-0.784c0.541,0.108,0.893,0.635,0.784,1.177   L30.98,42.196z M46.832,32.555l-4,6C42.64,38.844,42.322,39,41.999,39c-0.19,0-0.383-0.055-0.554-0.168   c-0.46-0.307-0.584-0.927-0.277-1.387L44.798,32l-3.63-5.445c-0.307-0.459-0.183-1.081,0.277-1.387   c0.46-0.307,1.08-0.182,1.387,0.277l4,6C47.056,31.781,47.056,32.219,46.832,32.555z"></path></g></svg></g></g></svg>